<?xml version="1.0" encoding="UTF-8"?>
<svg version="1.1" xmlns="http://www.w3.org/2000/svg" width="883" height="881">
<path d="M0 0 C1.17900879 0.26635254 1.17900879 0.26635254 2.38183594 0.53808594 C41.73116052 9.67129698 78.7387682 28.89854772 111.18554688 52.67578125 C127.80073841 64.80183061 144.77256768 76.41572665 163 86 C163.9885498 86.51989502 163.9885498 86.51989502 164.99707031 87.05029297 C188.29292555 99.09421618 215.72805735 106.63182463 242 107 C242.92796387 107.01901367 243.85592773 107.03802734 244.81201172 107.05761719 C275.7292224 107.6360407 305.63160354 104.0475485 335.8125 97.5 C336.47846191 97.35656158 337.14442383 97.21312317 337.83056641 97.06533813 C345.73998296 95.3495485 353.48150982 93.35663783 361.18969727 90.88623047 C365.12761188 89.64440699 368.91919608 88.65819418 373 88 C373.99 88.66 374.98 89.32 376 90 C375.86035156 92.31860352 375.86035156 92.31860352 375 95 C372.52246094 96.57397461 372.52246094 96.57397461 369.234375 97.90234375 C368.03296875 98.40056641 366.8315625 98.89878906 365.59375 99.41210938 C364.31279928 99.92132642 363.03154777 100.42978743 361.75 100.9375 C360.51486889 101.44020354 359.280484 101.94474464 358.046875 102.45117188 C356.1923203 103.212443 354.33772354 103.9736363 352.48031616 104.72792053 C348.50502647 106.34943821 344.59876753 108.07806215 340.7109375 109.8984375 C332.52921405 113.72475019 324.20411317 117.1975252 315.875 120.6875 C315.04129883 121.03760132 314.20759766 121.38770264 313.34863281 121.74841309 C298.6083447 127.93823743 283.83201911 134.03286815 269 140 C267.86353027 140.45761719 266.72706055 140.91523438 265.55615234 141.38671875 C249.68859391 147.76959113 233.78748978 154.06594478 217.87484741 160.3354187 C207.27238511 164.51305279 196.68268446 168.72058724 186.10736084 172.96643066 C170.67078245 179.16395288 155.19073795 185.24589286 139.6946106 191.29290771 C127.75305706 195.95317572 115.82805817 200.64863442 103.9375 205.4375 C90.81243518 210.71724305 77.60822454 215.76530286 64.36328125 220.73583984 C61.21887454 221.91773139 58.07767513 223.10770088 54.9375 224.30078125 C43.28365919 228.71690174 31.56952716 232.93959503 19.81509399 237.07827759 C10.59913869 240.32678074 1.43773583 243.69024021 -7.6875 247.1875 C-67.38392773 270.03066802 -127.86370927 290.93427743 -188.26245117 311.83544922 C-198.33198593 315.32240446 -208.38982763 318.83592829 -218.41796875 322.44018555 C-231.834914 327.26212494 -245.33142648 331.75597963 -258.90078735 336.12591553 C-272.22715652 340.41860511 -285.50404176 344.84018261 -298.75 349.375 C-299.57715515 349.65791901 -300.4043103 349.94083801 -301.25653076 350.23233032 C-308.50380939 352.71307447 -315.74780616 355.20247795 -322.97192383 357.75 C-333.50964662 361.46571793 -344.0823816 365.03394222 -354.71914673 368.45578003 C-359.04113928 369.84642894 -363.36049029 371.24522841 -367.6796875 372.64453125 C-368.54807755 372.92579361 -369.41646759 373.20705597 -370.31117249 373.49684143 C-378.82846337 376.26022914 -387.32219258 379.09249637 -395.8125 381.9375 C-406.45808817 385.50230776 -417.11987814 388.99730925 -427.84179688 392.32617188 C-430.15246638 393.04760263 -432.45932085 393.78036258 -434.765625 394.515625 C-442.82033739 397.0820219 -450.88237946 399.6073065 -459.00415039 401.95410156 C-463.61258247 403.28704444 -468.20144226 404.67397841 -472.78515625 406.08984375 C-473.98462891 406.45609863 -475.18410156 406.82235352 -476.41992188 407.19970703 C-478.80280323 407.9276677 -481.18314919 408.6639934 -483.56054688 409.40966797 C-489.5911065 411.23905493 -494.69364131 412.45541636 -501 412 C-501 410.02 -501 408.04 -501 406 C-500.09773682 405.58314941 -499.19547363 405.16629883 -498.26586914 404.73681641 C-458.13502983 386.13868088 -418.49350774 365.55622544 -386 335 C-385.41444336 334.45375977 -384.82888672 333.90751953 -384.22558594 333.34472656 C-369.20978496 319.22972097 -356.76914308 303.16693696 -347 285 C-346.64131836 284.33726074 -346.28263672 283.67452148 -345.91308594 282.99169922 C-334.31874402 261.13610933 -328.05536301 236.85387982 -321.8515625 213.04296875 C-316.64278641 193.09933536 -309.88613362 174.04450992 -302 155 C-301.61054199 154.05431152 -301.22108398 153.10862305 -300.81982422 152.13427734 C-292.94119279 133.21233223 -282.43386982 116.24719368 -270 100 C-268.93629059 98.5633947 -267.87355199 97.12606914 -266.8125 95.6875 C-265.87905705 94.45524954 -264.94142592 93.22616238 -264 92 C-263.43410156 91.26007813 -262.86820313 90.52015625 -262.28515625 89.7578125 C-254.40350109 79.66800447 -245.84350145 70.2000346 -236 62 C-234.99656307 61.11439219 -233.99546866 60.22612661 -232.99609375 59.3359375 C-220.32547388 48.12667352 -206.57986925 38.56305718 -192 30 C-191.43087891 29.65404785 -190.86175781 29.3080957 -190.27539062 28.95166016 C-178.10622726 21.55660423 -165.21343946 16.24094121 -152 11 C-150.55984302 10.4154947 -149.11973252 9.83087485 -147.6796875 9.24609375 C-100.7036574 -9.46966852 -48.94943739 -11.07354735 0 0 Z M-148 110 C-148.5892627 110.32782471 -149.17852539 110.65564941 -149.78564453 110.9934082 C-190.49363403 133.79318744 -216.09238963 175.0941354 -228.6328125 218.92578125 C-230.91195845 227.19980013 -232.53647683 235.54775634 -234 244 C-234.12135315 244.69845032 -234.2427063 245.39690063 -234.36773682 246.11651611 C-235.2244316 251.05932764 -236.06393163 256.00478977 -236.88793945 260.95315552 C-237.1699945 262.64514111 -237.45415974 264.33677635 -237.74047852 266.02804565 C-238.14406344 268.42363824 -238.53648769 270.82079867 -238.92578125 273.21875 C-239.04947586 273.94397354 -239.17317047 274.66919708 -239.3006134 275.41639709 C-239.8475431 278.86049841 -240.2422537 281.68447139 -239 285 C-233.90253721 286.74802939 -230.07323352 285.01639322 -225.234375 283.2890625 C-224.4003717 283.00147064 -223.56636841 282.71387878 -222.70709229 282.41757202 C-220.95022907 281.8094049 -219.19535226 281.19547287 -217.44238281 280.57617188 C-214.74944286 279.62480317 -212.05126604 278.68979455 -209.3515625 277.7578125 C-207.64550789 277.16499825 -205.93976722 276.57127961 -204.234375 275.9765625 C-203.01883942 275.55306015 -203.01883942 275.55306015 -201.77874756 275.1210022 C-198.10902246 274.05073012 -198.10902246 274.05073012 -195 272 C-194.87725115 269.73921698 -194.82008263 267.47483787 -194.7890625 265.2109375 C-194.76091797 263.7786359 -194.73225338 262.34634443 -194.703125 260.9140625 C-194.66244563 258.66798031 -194.62556436 256.4220722 -194.59863281 254.17578125 C-194.15215624 219.87406402 -181.06658665 188.25364079 -158 163 C-157.28457031 162.20207031 -156.56914062 161.40414062 -155.83203125 160.58203125 C-138.20648716 141.89829315 -112.97428628 129.152672 -88 124 C-87.13955078 123.82098145 -86.27910156 123.64196289 -85.39257812 123.45751953 C-76.89054763 121.8660438 -68.49486638 121.64053761 -59.875 121.6875 C-59.14600494 121.68998749 -58.41700989 121.69247498 -57.66592407 121.69503784 C-25.83112546 121.86297741 1.84524636 131.77262531 26.875 151.62890625 C29.79963097 154.11182875 29.79963097 154.11182875 33 155 C33.33 155.99 33.66 156.98 34 158 C35.37242851 159.09794281 36.74543721 160.19516694 38.12109375 161.2890625 C44.30663726 166.92163643 49.26806284 174.13105896 54 181 C58.7315551 180.39227733 62.72019902 179.0642917 67.125 177.25 C67.77807129 176.98268066 68.43114258 176.71536133 69.10400391 176.43994141 C71.07185427 175.63258132 73.03605298 174.81680053 75 174 C76.64742187 173.32324219 76.64742187 173.32324219 78.328125 172.6328125 C81.22526634 171.43681313 84.11257821 170.21922518 87 169 C87.89332031 168.6390625 88.78664063 168.278125 89.70703125 167.90625 C90.52558594 167.5659375 91.34414063 167.225625 92.1875 166.875 C92.90292969 166.58367187 93.61835937 166.29234375 94.35546875 165.9921875 C96.35004759 165.03141666 96.35004759 165.03141666 97 162 C92.34932514 157.78568476 87.64369578 153.68076592 82.75 149.75 C78.56352851 146.36122892 74.60547369 142.81347636 70.6875 139.125 C34.10179058 104.94731316 -11.62794005 84.83591866 -62.10546875 85.8203125 C-92.96709139 87.24421886 -121.12983052 94.6823944 -148 110 Z M-142 156 C-142.77947998 156.65838867 -142.77947998 156.65838867 -143.57470703 157.33007812 C-171.61991002 181.22874592 -186.51664345 214.72477684 -190 251 C-190.39665496 257.45465804 -189.96380125 263.61481669 -189 270 C-182.23926614 268.61586863 -175.80258098 266.74281273 -169.265625 264.54296875 C-168.24734619 264.20401077 -167.22906738 263.8650528 -166.17993164 263.51582336 C-162.86822934 262.41146776 -159.55898286 261.29997516 -156.25 260.1875 C-155.10897827 259.80529297 -153.96795654 259.42308594 -152.7923584 259.02929688 C-133.27396668 252.49110296 -113.81527072 245.80318046 -94.43408203 238.86932373 C-91.88290852 237.95818119 -89.33028064 237.05120886 -86.77734375 236.14501953 C-47.47935083 222.18641232 -8.54969158 207.25683863 30.1875 191.8125 C31.34902588 191.34996826 32.51055176 190.88743652 33.70727539 190.41088867 C38.57909246 188.45120545 43.35897643 186.46078452 48 184 C44.12173838 177.84229212 39.94310033 172.34232588 34.9375 167.0625 C34.28410645 166.3715625 33.63071289 165.680625 32.95751953 164.96875 C27.09489835 158.89172925 20.96683279 153.77676406 14 149 C12.9996875 148.30648437 11.999375 147.61296875 10.96875 146.8984375 C-35.51855976 116.49385864 -99.58860027 119.66455967 -142 156 Z " fill="#FDFDFD" transform="translate(501,177)"/>
<path d="M0 0 C1.18585693 -0.00225586 2.37171387 -0.00451172 3.59350586 -0.00683594 C5.48854858 0.00041504 5.48854858 0.00041504 7.421875 0.0078125 C8.7013501 0.01264648 9.9808252 0.01748047 11.29907227 0.02246094 C29.02680188 0.13546999 46.63841171 0.43421837 60.921875 12.4453125 C69.16523691 22.29155033 71.53337904 31.94458479 71.03125 44.70703125 C67.07669197 87.90627924 47.68083756 130.85313071 20.171875 164.1328125 C19.7588916 164.63458008 19.3459082 165.13634766 18.92041016 165.65332031 C8.40536852 178.36625398 -2.77850594 189.99118655 -15.828125 200.1328125 C-16.85679687 200.95523438 -17.88546875 201.77765625 -18.9453125 202.625 C-26.23510767 208.40906668 -33.78879428 213.42406165 -41.828125 218.1328125 C-42.8696875 218.76703125 -43.91125 219.40125 -44.984375 220.0546875 C-63.18244843 230.88687407 -82.53490247 238.25333281 -102.828125 244.1328125 C-103.57223633 244.35163086 -104.31634766 244.57044922 -105.08300781 244.79589844 C-109.625465 246.10924662 -114.20036207 247.17484596 -118.828125 248.1328125 C-119.65489746 248.31328125 -120.48166992 248.49375 -121.33349609 248.6796875 C-158.23746192 256.50880335 -197.19799802 253.05884337 -232.828125 241.1328125 C-233.59382813 240.88337891 -234.35953125 240.63394531 -235.1484375 240.37695312 C-255.47683867 233.67547172 -275.15830557 224.2224329 -292.828125 212.1328125 C-293.42625 211.72853027 -294.024375 211.32424805 -294.640625 210.90771484 C-310.90947486 199.84998095 -330.36621905 186.51853036 -336.828125 167.1328125 C-338.24884806 154.52802535 -334.49133836 144.95826034 -326.828125 135.1328125 C-320.17504016 127.20437594 -313.05546588 120.44760784 -304.828125 114.1328125 C-303.76597796 113.28243413 -302.70480626 112.43083634 -301.64453125 111.578125 C-300.58163897 110.74103099 -299.51785775 109.90506429 -298.453125 109.0703125 C-297.49664062 108.31621094 -296.54015625 107.56210937 -295.5546875 106.78515625 C-292.56154093 104.97125797 -291.24592602 104.42356294 -287.828125 105.1328125 C-285.8359375 106.8203125 -285.8359375 106.8203125 -283.953125 109.1328125 C-283.2621875 109.95910156 -282.57125 110.78539062 -281.859375 111.63671875 C-281.1890625 112.46042969 -280.51875 113.28414062 -279.828125 114.1328125 C-277.53543196 116.83714815 -275.20068663 119.49828052 -272.828125 122.1328125 C-272.1475 122.89207031 -271.466875 123.65132812 -270.765625 124.43359375 C-263.35425141 132.28313976 -254.78058847 138.17448397 -245.828125 144.1328125 C-245.2515918 144.52243164 -244.67505859 144.91205078 -244.08105469 145.31347656 C-220.35895691 161.23890191 -192.108058 168.56723725 -163.703125 168.4453125 C-162.68782211 168.44257828 -162.68782211 168.44257828 -161.65200806 168.43978882 C-150.47531798 168.38931525 -139.72350263 167.68915933 -128.828125 165.1328125 C-128.07289551 164.95588867 -127.31766602 164.77896484 -126.53955078 164.59667969 C-109.89756832 160.56247083 -95.19933976 154.42719659 -80.828125 145.1328125 C-79.73757813 144.44445312 -78.64703125 143.75609375 -77.5234375 143.046875 C-42.56331525 120.05354276 -22.0437051 85.05827307 -13.109375 44.90234375 C-11.47721506 36.58552877 -10.76236951 28.28107423 -10.875 19.80859375 C-10.88611816 18.86483887 -10.89723633 17.92108398 -10.90869141 16.94873047 C-10.93799656 15.05033602 -10.98162505 13.15210125 -11.04052734 11.25439453 C-11.0555127 10.3776709 -11.07049805 9.50094727 -11.0859375 8.59765625 C-11.1080127 7.8099585 -11.13008789 7.02226074 -11.15283203 6.21069336 C-10.74264097 3.58577898 -9.87604626 2.76648808 -7.828125 1.1328125 C-5.12986508 -0.21631746 -3.01896529 0.00317213 0 0 Z " fill="#FEFEFE" transform="translate(609.828125,431.8671875)"/>
<path d="M0 0 C0.33 1.32 0.66 2.64 1 4 C-4.96320804 7.06125198 -11.01076943 9.77522819 -17.1875 12.375 C-22.85184998 14.76178404 -28.47439202 17.20499537 -34.04296875 19.80859375 C-42.31363275 23.64895801 -50.71591963 27.16401821 -59.125 30.6875 C-59.95870117 31.03760132 -60.79240234 31.38770264 -61.65136719 31.74841309 C-76.3916553 37.93823743 -91.16798089 44.03286815 -106 50 C-107.13646973 50.45761719 -108.27293945 50.91523438 -109.44384766 51.38671875 C-125.31140609 57.76959113 -141.21251022 64.06594478 -157.12515259 70.3354187 C-167.72761489 74.51305279 -178.31731554 78.72058724 -188.89263916 82.96643066 C-204.32921755 89.16395288 -219.80926205 95.24589286 -235.3053894 101.29290771 C-247.24694294 105.95317572 -259.17194183 110.64863442 -271.0625 115.4375 C-284.18756482 120.71724305 -297.39177546 125.76530286 -310.63671875 130.73583984 C-313.78112546 131.91773139 -316.92232487 133.10770088 -320.0625 134.30078125 C-331.71634081 138.71690174 -343.43047284 142.93959503 -355.18490601 147.07827759 C-364.40086131 150.32678074 -373.56226417 153.69024021 -382.6875 157.1875 C-442.38392773 180.03066802 -502.86370927 200.93427743 -563.26245117 221.83544922 C-573.33198593 225.32240446 -583.38982763 228.83592829 -593.41796875 232.44018555 C-606.834914 237.26212494 -620.33142648 241.75597963 -633.90078735 246.12591553 C-647.22715652 250.41860511 -660.50404176 254.84018261 -673.75 259.375 C-674.57715515 259.65791901 -675.4043103 259.94083801 -676.25653076 260.23233032 C-683.50380939 262.71307447 -690.74780616 265.20247795 -697.97192383 267.75 C-708.50964662 271.46571793 -719.0823816 275.03394222 -729.71914673 278.45578003 C-734.04113928 279.84642894 -738.36049029 281.24522841 -742.6796875 282.64453125 C-743.54807755 282.92579361 -744.41646759 283.20705597 -745.31117249 283.49684143 C-753.82846337 286.26022914 -762.32219258 289.09249637 -770.8125 291.9375 C-781.45808817 295.50230776 -792.11987814 298.99730925 -802.84179688 302.32617188 C-805.15246638 303.04760263 -807.45932085 303.78036258 -809.765625 304.515625 C-817.82033739 307.0820219 -825.88237946 309.6073065 -834.00415039 311.95410156 C-838.61258247 313.28704444 -843.20144226 314.67397841 -847.78515625 316.08984375 C-848.98462891 316.45609863 -850.18410156 316.82235352 -851.41992188 317.19970703 C-853.80280323 317.9276677 -856.18314919 318.6639934 -858.56054688 319.40966797 C-864.5911065 321.23905493 -869.69364131 322.45541636 -876 322 C-876 320.02 -876 318.04 -876 316 C-875.09773682 315.58314941 -874.19547363 315.16629883 -873.26586914 314.73681641 C-833.13502983 296.13868088 -793.49350774 275.55622544 -761 245 C-760.41444336 244.45375977 -759.82888672 243.90751953 -759.22558594 243.34472656 C-744.20978496 229.22972097 -731.76914308 213.16693696 -722 195 C-721.64131836 194.33726074 -721.28263672 193.67452148 -720.91308594 192.99169922 C-709.31874402 171.13610933 -703.05536301 146.85387982 -696.8515625 123.04296875 C-691.64278641 103.09933536 -684.88613362 84.04450992 -677 65 C-676.41581299 63.58146729 -676.41581299 63.58146729 -675.81982422 62.13427734 C-657.61377239 18.40918159 -657.61377239 18.40918159 -642 8 C-643.46346275 11.29899229 -645.44543069 14.13798266 -647.52807617 17.07397461 C-667.89147837 45.80425538 -683.12689657 79.58580776 -691.46533203 113.84033203 C-692.5301727 118.14151036 -693.7098688 122.41261459 -694.875 126.6875 C-695.12580322 127.60813232 -695.37660645 128.52876465 -695.63500977 129.47729492 C-702.11716047 153.10975128 -709.26662055 176.38460207 -721 198 C-721.56332031 199.04285156 -722.12664062 200.08570313 -722.70703125 201.16015625 C-728.93597338 212.23221029 -736.27082804 222.50237735 -744.94140625 231.7890625 C-746.7456292 233.7268048 -748.4359694 235.71284859 -750.125 237.75 C-780.38083947 272.23888124 -824.74658296 295.21035348 -865.81738281 313.98046875 C-866.62272461 314.35300781 -867.42806641 314.72554687 -868.2578125 315.109375 C-868.9605127 315.42874023 -869.66321289 315.74810547 -870.38720703 316.07714844 C-872.18496756 316.90809183 -872.18496756 316.90809183 -873 319 C-860.90277474 316.10188441 -848.85459609 313.16421309 -837.03393555 309.26904297 C-832.89698159 307.90590121 -828.74545199 306.62540164 -824.5614624 305.41300964 C-812.40235755 301.88806525 -800.36054031 298.00998423 -788.3125 294.125 C-787.11495087 293.73939911 -785.91740173 293.35379822 -784.68356323 292.95651245 C-738.71567563 278.15019236 -692.8651107 262.98324245 -647.04041672 247.74039841 C-644.49589053 246.89441325 -641.95101779 246.04947908 -639.40603638 245.2048645 C-619.93755585 238.74196928 -600.52406152 232.14614893 -581.18785095 225.29660034 C-573.39969227 222.53815459 -565.60216798 219.82213836 -557.75 217.25 C-549.32235252 214.47741085 -540.97863803 211.49965752 -532.63891602 208.47338867 C-525.17721271 205.77015406 -517.69201274 203.14434342 -510.1875 200.5625 C-497.53400482 196.20494188 -484.92805878 191.72020296 -472.33300781 187.19677734 C-469.26178938 186.09400026 -466.18962205 184.99391443 -463.1171875 183.89453125 C-417.9187358 167.69736862 -372.94020001 150.89759996 -328 134 C-327.1387854 133.67626404 -326.2775708 133.35252808 -325.39025879 133.01898193 C-273.3156076 113.44042795 -221.45732733 93.2730483 -169.83155823 72.54016113 C-162.41132665 69.56200069 -154.98484404 66.59961462 -147.55739212 63.63952446 C-101.80310962 45.4034704 -56.07251857 27.1209108 -11.1875 6.8125 C-10.1658374 6.35439941 -9.1441748 5.89629883 -8.09155273 5.42431641 C-6.70625366 4.79082275 -6.70625366 4.79082275 -5.29296875 4.14453125 C-4.07903442 3.59309448 -4.07903442 3.59309448 -2.84057617 3.03051758 C-0.83204825 2.13239084 -0.83204825 2.13239084 0 0 Z " fill="#161616" transform="translate(876,267)"/>
<path d="M0 0 C3 1 3 1 4 3 C4.54414797 9.27856622 3.61717386 15.20415803 2.25 21.3125 C1.97712158 22.55906372 1.97712158 22.55906372 1.69873047 23.83081055 C0.22203671 30.38801887 -1.56884874 36.7266097 -4 43 C-4.64582031 44.67449219 -4.64582031 44.67449219 -5.3046875 46.3828125 C-18.57964272 79.0320267 -44.99100804 104.87586285 -77.10009766 118.91845703 C-106.46073889 131.1779579 -142.59989568 133.62033157 -172.49462891 121.49145508 C-174.34554041 120.69169372 -176.173685 119.85435207 -178 119 C-178.67740234 118.6901416 -179.35480469 118.3802832 -180.05273438 118.06103516 C-195.58355187 110.88608375 -213.18153466 100.43891962 -223 86 C-222.875 83.0625 -222.875 83.0625 -222 81 C-217.98185561 81.50654631 -216.30371259 82.31546738 -213.6875 85.375 C-194.28516283 105.68568629 -162.67253008 118.53256701 -134.91015625 119.203125 C-98.86285794 119.61821669 -66.46505716 109.54914121 -39.57275391 84.56542969 C-18.82907883 63.91835664 -7.38772283 35.64659462 -4.6875 6.85546875 C-3.87574794 3.48393035 -2.62953262 2.18951002 0 0 Z " fill="#0E0E0E" transform="translate(569,437)"/>
<path d="M0 0 C1.18585693 -0.00225586 2.37171387 -0.00451172 3.59350586 -0.00683594 C5.48854858 0.00041504 5.48854858 0.00041504 7.421875 0.0078125 C8.7013501 0.01264648 9.9808252 0.01748047 11.29907227 0.02246094 C29.02680188 0.13546999 46.63841171 0.43421837 60.921875 12.4453125 C69.16523691 22.29155033 71.53337904 31.94458479 71.03125 44.70703125 C67.07669197 87.90627924 47.68083756 130.85313071 20.171875 164.1328125 C19.7588916 164.63458008 19.3459082 165.13634766 18.92041016 165.65332031 C8.40536852 178.36625398 -2.77850594 189.99118655 -15.828125 200.1328125 C-16.85679687 200.95523438 -17.88546875 201.77765625 -18.9453125 202.625 C-26.23510767 208.40906668 -33.78879428 213.42406165 -41.828125 218.1328125 C-42.8696875 218.76703125 -43.91125 219.40125 -44.984375 220.0546875 C-63.18244843 230.88687407 -82.53490247 238.25333281 -102.828125 244.1328125 C-103.57223633 244.35163086 -104.31634766 244.57044922 -105.08300781 244.79589844 C-109.625465 246.10924662 -114.20036207 247.17484596 -118.828125 248.1328125 C-119.65489746 248.31328125 -120.48166992 248.49375 -121.33349609 248.6796875 C-158.23746192 256.50880335 -197.19799802 253.05884337 -232.828125 241.1328125 C-233.59382813 240.88337891 -234.35953125 240.63394531 -235.1484375 240.37695312 C-255.47683867 233.67547172 -275.15830557 224.2224329 -292.828125 212.1328125 C-293.42625 211.72853027 -294.024375 211.32424805 -294.640625 210.90771484 C-310.90947486 199.84998095 -330.36621905 186.51853036 -336.828125 167.1328125 C-338.24884806 154.52802535 -334.49133836 144.95826034 -326.828125 135.1328125 C-320.17504016 127.20437594 -313.05546588 120.44760784 -304.828125 114.1328125 C-303.76597796 113.28243413 -302.70480626 112.43083634 -301.64453125 111.578125 C-300.58163897 110.74103099 -299.51785775 109.90506429 -298.453125 109.0703125 C-297.49664062 108.31621094 -296.54015625 107.56210937 -295.5546875 106.78515625 C-292.56154093 104.97125797 -291.24592602 104.42356294 -287.828125 105.1328125 C-285.8359375 106.8203125 -285.8359375 106.8203125 -283.953125 109.1328125 C-283.2621875 109.95910156 -282.57125 110.78539062 -281.859375 111.63671875 C-281.1890625 112.46042969 -280.51875 113.28414062 -279.828125 114.1328125 C-277.53543196 116.83714815 -275.20068663 119.49828052 -272.828125 122.1328125 C-272.1475 122.89207031 -271.466875 123.65132812 -270.765625 124.43359375 C-263.35425141 132.28313976 -254.78058847 138.17448397 -245.828125 144.1328125 C-245.2515918 144.52243164 -244.67505859 144.91205078 -244.08105469 145.31347656 C-220.35895691 161.23890191 -192.108058 168.56723725 -163.703125 168.4453125 C-162.68782211 168.44257828 -162.68782211 168.44257828 -161.65200806 168.43978882 C-150.47531798 168.38931525 -139.72350263 167.68915933 -128.828125 165.1328125 C-128.07289551 164.95588867 -127.31766602 164.77896484 -126.53955078 164.59667969 C-109.89756832 160.56247083 -95.19933976 154.42719659 -80.828125 145.1328125 C-79.73757813 144.44445312 -78.64703125 143.75609375 -77.5234375 143.046875 C-42.56331525 120.05354276 -22.0437051 85.05827307 -13.109375 44.90234375 C-11.47721506 36.58552877 -10.76236951 28.28107423 -10.875 19.80859375 C-10.88611816 18.86483887 -10.89723633 17.92108398 -10.90869141 16.94873047 C-10.93799656 15.05033602 -10.98162505 13.15210125 -11.04052734 11.25439453 C-11.0555127 10.3776709 -11.07049805 9.50094727 -11.0859375 8.59765625 C-11.1080127 7.8099585 -11.13008789 7.02226074 -11.15283203 6.21069336 C-10.74264097 3.58577898 -9.87604626 2.76648808 -7.828125 1.1328125 C-5.12986508 -0.21631746 -3.01896529 0.00317213 0 0 Z M-7.828125 3.1328125 C-7.96227714 4.78565744 -8.0317457 6.44382632 -8.07421875 8.1015625 C-8.10555908 9.13925781 -8.13689941 10.17695313 -8.16918945 11.24609375 C-8.20101318 12.36371094 -8.23283691 13.48132813 -8.265625 14.6328125 C-9.76378015 57.04951789 -23.15840194 94.11446566 -52.828125 125.1328125 C-53.446875 125.803125 -54.065625 126.4734375 -54.703125 127.1640625 C-69.01085999 142.18718424 -87.1428209 151.70703845 -105.828125 160.1328125 C-106.97410156 160.66132812 -108.12007812 161.18984375 -109.30078125 161.734375 C-113.59767673 163.4379061 -117.90756167 164.59451384 -122.390625 165.6953125 C-123.5981543 166.00758789 -123.5981543 166.00758789 -124.83007812 166.32617188 C-136.71695618 169.28629217 -148.49891464 170.47002177 -160.73217773 170.39355469 C-162.76120992 170.38283582 -164.78935368 170.39352743 -166.81835938 170.40625 C-179.56972297 170.4219367 -192.01638151 169.09655264 -204.265625 165.4453125 C-205.59811279 165.05448486 -205.59811279 165.05448486 -206.95751953 164.65576172 C-215.24627425 162.14397275 -223.05745046 158.93707857 -230.828125 155.1328125 C-231.44848633 154.83681152 -232.06884766 154.54081055 -232.70800781 154.23583984 C-255.00967078 143.50251219 -274.51049346 126.23364424 -288.828125 106.1328125 C-291.99890184 106.73163063 -293.88470145 107.71445672 -296.3671875 109.7578125 C-297.02525391 110.2950293 -297.68332031 110.83224609 -298.36132812 111.38574219 C-299.05162109 111.96227539 -299.74191406 112.53880859 -300.453125 113.1328125 C-301.16662109 113.72223633 -301.88011719 114.31166016 -302.61523438 114.91894531 C-324.49898961 132.43031566 -324.49898961 132.43031566 -335.078125 157.3984375 C-335.5954314 167.67990228 -331.81383232 175.90498448 -325.203125 183.609375 C-311.24153906 198.44356006 -294.72935994 209.73164067 -277.12939453 219.81347656 C-275.12209306 220.9642783 -273.12899825 222.13602222 -271.13671875 223.3125 C-249.22819144 235.72483971 -224.52312103 242.91302825 -199.828125 247.1328125 C-198.76174805 247.31505371 -198.76174805 247.31505371 -197.67382812 247.50097656 C-172.55285338 251.51219036 -144.77273122 250.59883493 -119.828125 246.1328125 C-119.05130371 245.99891113 -118.27448242 245.86500977 -117.47412109 245.72705078 C-79.23273105 238.90856217 -42.12955633 220.4721006 -12.828125 195.1328125 C-12.07015625 194.48570312 -11.3121875 193.83859375 -10.53125 193.171875 C-7.91212159 190.87794039 -5.35671719 188.52539045 -2.828125 186.1328125 C-2.20631348 185.545 -1.58450195 184.9571875 -0.94384766 184.3515625 C9.55206973 174.34457766 18.76436571 163.94280828 27.171875 152.1328125 C27.81382812 151.25786133 27.81382812 151.25786133 28.46875 150.36523438 C49.11901832 122.16716229 59.90766197 89.88265978 67.171875 56.1328125 C67.44233643 54.90425537 67.44233643 54.90425537 67.71826172 53.65087891 C69.7651226 42.28848754 70.23304683 28.48196056 64.00390625 18.4453125 C55.87233158 8.18115001 45.81359756 4.44224972 33.1171875 2.6640625 C25.14505498 1.79322948 17.11957834 1.87242354 9.109375 1.8828125 C7.94258713 1.88383972 7.94258713 1.88383972 6.75222778 1.8848877 C-1.13853307 1.16080764 -1.13853307 1.16080764 -7.828125 3.1328125 Z " fill="#131313" transform="translate(609.828125,431.8671875)"/>
<path d="M0 0 C0.7616748 0.26264648 1.52334961 0.52529297 2.30810547 0.79589844 C34.52240355 12.04139111 60.51310981 31.04522412 85.515625 53.80078125 C89.09906661 56.97291588 92.81871636 59.96716513 96.5546875 62.95703125 C97.36164063 63.63121094 98.16859375 64.30539062 99 65 C99.78632812 65.64324219 100.57265625 66.28648437 101.3828125 66.94921875 C103 69 103 69 102.85742188 71.47705078 C102 74 102 74 100.25537109 75.36010742 C99.47758301 75.70920166 98.69979492 76.0582959 97.8984375 76.41796875 C96.99319336 76.82966309 96.08794922 77.24135742 95.15527344 77.66552734 C94.1140332 78.10590332 93.07279297 78.5462793 92 79 C90.82211914 79.50096191 89.64423828 80.00192383 88.43066406 80.51806641 C85.18285413 81.88018819 81.91940051 83.19995306 78.64794922 84.50415039 C76.60434903 85.32075192 74.56586032 86.14931746 72.52734375 86.97851562 C71.21904102 87.50333022 69.91045726 88.02744493 68.6015625 88.55078125 C67.42932129 89.02169189 66.25708008 89.49260254 65.04931641 89.9777832 C62 91 62 91 58 91 C55.95703125 88.7265625 55.95703125 88.7265625 53.8125 85.625 C53.01801213 84.51297996 52.2197556 83.4036439 51.41796875 82.296875 C51.01497559 81.73935547 50.61198242 81.18183594 50.19677734 80.60742188 C32.43122419 56.74605876 5.39903687 41.46825883 -23 34 C-23.88042969 33.76796875 -24.76085937 33.5359375 -25.66796875 33.296875 C-60.68180406 24.85980625 -97.77940814 33.56856883 -128 52 C-132.60177022 55.02209338 -136.81651593 58.41963945 -141 62 C-141.5057959 62.42361816 -142.0115918 62.84723633 -142.53271484 63.28369141 C-163.05496782 80.56866786 -177.74830294 104.96137827 -184 131 C-184.28617187 132.14726562 -184.57234375 133.29453125 -184.8671875 134.4765625 C-187.55953515 145.63057418 -188.13361367 156.07350926 -188.0625 167.5 C-188.05747533 168.90885258 -188.05291413 170.31770689 -188.04882812 171.7265625 C-188.0371003 175.15108638 -188.02068691 178.57552047 -188 182 C-193.58303791 183.86279108 -199.16978698 185.71382329 -204.76025391 187.55419922 C-206.66040095 188.18153599 -208.5595058 188.81203891 -210.45751953 189.44580078 C-213.190334 190.3576933 -215.92672904 191.25802768 -218.6640625 192.15625 C-219.93003769 192.5827887 -219.93003769 192.5827887 -221.22158813 193.01794434 C-225.5716457 194.43251354 -229.36636215 195.55194149 -234 195 C-236 193 -236 193 -236.18896484 189.78344727 C-236.01250819 186.25043857 -235.60482508 182.94292804 -234.9765625 179.46484375 C-234.76 178.24216797 -234.5434375 177.01949219 -234.3203125 175.75976562 C-233.97613281 173.86774414 -233.97613281 173.86774414 -233.625 171.9375 C-232.30208133 164.57299634 -231.00618489 157.22507435 -230.0078125 149.80859375 C-229.12349001 143.47005868 -227.83078387 137.32374592 -226.25 131.125 C-225.9926709 130.10212891 -225.7353418 129.07925781 -225.47021484 128.02539062 C-223.24348513 119.43137382 -220.39846966 111.19489138 -217 103 C-215.92678483 106.22960784 -216.06266437 107.9761905 -217.2578125 111.140625 C-217.55115479 111.95015625 -217.84449707 112.7596875 -218.14672852 113.59375 C-218.46955811 114.4703125 -218.7923877 115.346875 -219.125 116.25 C-225.39649803 134.27258327 -228.25209986 152.98133617 -231.375 171.75 C-231.51455109 172.57725586 -231.65410217 173.40451172 -231.79788208 174.25683594 C-232.1944872 176.62299052 -232.57954572 178.99072631 -232.9609375 181.359375 C-233.08144974 182.07188416 -233.20196198 182.78439331 -233.3261261 183.51849365 C-233.86227537 186.93222158 -234.21915072 189.71450998 -233 193 C-227.57860112 192.39969594 -222.79435998 191.08850043 -217.66015625 189.27734375 C-216.89319931 189.01240616 -216.12624237 188.74746857 -215.33604431 188.47450256 C-212.90943157 187.63474324 -210.48597007 186.7862807 -208.0625 185.9375 C-206.40840429 185.36335241 -204.75410921 184.78977887 -203.09960938 184.21679688 C-199.0640704 182.81782552 -195.03133221 181.4110456 -191 180 C-190.98541748 179.07888428 -190.97083496 178.15776855 -190.95581055 177.20874023 C-190.89389598 173.71373973 -190.81960197 170.21941826 -190.73754883 166.72485352 C-190.70477268 165.22690363 -190.67660243 163.72884419 -190.65356445 162.23071289 C-190.11313789 127.97686731 -177.14060213 96.18542706 -154 71 C-153.21109375 70.12859375 -152.4221875 69.2571875 -151.609375 68.359375 C-133.57271422 49.36712954 -108.54374977 36.27016319 -83 31 C-82.13955078 30.82098145 -81.27910156 30.64196289 -80.39257812 30.45751953 C-71.89054763 28.8660438 -63.49486638 28.64053761 -54.875 28.6875 C-54.14600494 28.68998749 -53.41700989 28.69247498 -52.66592407 28.69503784 C-19.42281764 28.87040672 9.25695289 39.88474922 35 61 C36.39992188 62.14082031 36.39992188 62.14082031 37.828125 63.3046875 C45.91282644 70.24532742 53.76638175 78.67275955 59 88 C63.7315551 87.39227733 67.72019902 86.0642917 72.125 84.25 C72.77734619 83.98340576 73.42969238 83.71681152 74.10180664 83.44213867 C76.07092342 82.63524947 78.0360739 81.81943297 80 81 C81.10988281 80.53722656 82.21976563 80.07445312 83.36328125 79.59765625 C85.35325693 78.76576045 87.34165161 77.93006831 89.328125 77.08984375 C91.75998705 76.09790002 94.20348223 75.22502736 96.6875 74.375 C97.780625 73.92125 98.87375 73.4675 100 73 C100.33 72.01 100.66 71.02 101 70 C96.68929498 66.15865541 92.31373381 62.42932717 87.8125 58.8125 C83.60757906 55.40106965 79.62650393 51.83296164 75.6875 48.125 C39.10154146 13.94743666 -6.62774979 -6.16408505 -57.10546875 -5.1796875 C-85.72289899 -3.85932462 -113.49024287 2.07466259 -138.42260742 16.64990234 C-139.91027418 17.50346418 -141.4522822 18.26088579 -143 19 C-144.485 18.505 -144.485 18.505 -146 18 C-102.1649445 -7.83515348 -49.00092385 -17.1046035 0 0 Z " fill="#121212" transform="translate(496,269)"/>
<path d="M0 0 C1.17900879 0.26635254 1.17900879 0.26635254 2.38183594 0.53808594 C41.73116052 9.67129698 78.7387682 28.89854772 111.18554688 52.67578125 C127.80073841 64.80183061 144.77256768 76.41572665 163 86 C163.6590332 86.34659668 164.31806641 86.69319336 164.99707031 87.05029297 C188.29292555 99.09421618 215.72805735 106.63182463 242 107 C242.92796387 107.01901367 243.85592773 107.03802734 244.81201172 107.05761719 C264.47634325 107.42551298 284.00629063 106.70123132 303.41796875 103.375 C306.99050328 102.85614476 310.39760519 102.85872962 314 103 C314 103.33 314 103.66 314 104 C310.06353184 104.65222541 306.12566031 105.29557765 302.1875 105.9375 C301.08728516 106.11990234 299.98707031 106.30230469 298.85351562 106.49023438 C284.74135524 108.77981792 270.95952441 109.23990201 256.6875 109.25 C255.70334106 109.25100708 254.71918213 109.25201416 253.7052002 109.25305176 C239.61804518 109.24328537 225.8251111 108.981207 212 106 C211.28150879 105.85014648 210.56301758 105.70029297 209.82275391 105.54589844 C205.15416499 104.54571405 200.58367111 103.3358957 196 102 C194.83082031 101.66484375 193.66164063 101.3296875 192.45703125 100.984375 C166.32125373 92.88997934 143.4869241 78.48781409 121.33984375 62.765625 C88.43232126 39.46054374 53.91598209 18.50782379 15 7 C14.17870605 6.75169434 13.35741211 6.50338867 12.51123047 6.24755859 C-42.92463751 -10.31090911 -104.70947694 -5.70340614 -158 16 C-158.88187988 16.35819824 -159.76375977 16.71639648 -160.67236328 17.08544922 C-192.11665154 30.08067711 -219.53331224 49.55382059 -244 73 C-244.82113281 73.77988281 -245.64226562 74.55976563 -246.48828125 75.36328125 C-251.46452198 80.20200929 -255.85857422 85.36009424 -260.15234375 90.8125 C-262 93 -262 93 -264 94 C-262.56995245 89.47840456 -260.03970806 86.53914358 -256.8125 83.1875 C-255.8116626 82.12578877 -254.81166202 81.06328807 -253.8125 80 C-253.3278125 79.48695313 -252.843125 78.97390625 -252.34375 78.4453125 C-250.60599569 76.57621629 -248.95809584 74.63783581 -247.3125 72.6875 C-244.54842951 69.51465852 -241.61126069 66.74162541 -238.3984375 64.02734375 C-236.56681173 62.47911284 -234.76707051 60.91099072 -232.9765625 59.31640625 C-220.30911869 48.1174366 -206.57209313 38.55849011 -192 30 C-191.43087891 29.65404785 -190.86175781 29.3080957 -190.27539062 28.95166016 C-178.10622726 21.55660423 -165.21343946 16.24094121 -152 11 C-150.55984302 10.4154947 -149.11973252 9.83087485 -147.6796875 9.24609375 C-100.7036574 -9.46966852 -48.94943739 -11.07354735 0 0 Z " fill="#161616" transform="translate(501,177)"/>
<path d="M0 0 C0.99 0 1.98 0 3 0 C3.16093345 6.24545597 2.71983274 11.84479494 1.375 17.9375 C1.19606201 18.75524902 1.01712402 19.57299805 0.83276367 20.41552734 C-7.32651308 56.23926037 -27.47348926 85.34927429 -58.375 105.25 C-87.94372028 122.72728943 -123.42503008 129.01564597 -157 121 C-180.66551956 114.82573305 -205.13640294 101.9544985 -221 83 C-221 82.34 -221 81.68 -221 81 C-216.89467468 81.53094277 -214.9626229 83.67401558 -212.0625 86.5 C-187.69978559 109.48736648 -155.5695953 120.90395126 -122.3359375 120.24609375 C-89.68021357 119.06767355 -58.97255869 104.97255869 -36 82 C-35.19949219 81.19949219 -34.39898438 80.39898438 -33.57421875 79.57421875 C-19.38536359 64.60117816 -10.4760792 45.67567991 -5 26 C-4.64808594 24.88496094 -4.29617188 23.76992188 -3.93359375 22.62109375 C-2.81836221 18.29548858 -2.35113992 14.06353623 -1.9375 9.625 C-1.12793734 1.12793734 -1.12793734 1.12793734 0 0 Z " fill="#E9E9E9" transform="translate(568,439)"/>
<path d="M0 0 C1.19882812 0.86625 1.19882812 0.86625 2.421875 1.75 C14.19440243 10.67557635 24.9366661 21.60874248 33 34 C29.42813742 37.0843414 25.3629589 38.6064828 21.01171875 40.265625 C19.81435593 40.7307827 19.81435593 40.7307827 18.59280396 41.20533752 C15.96002421 42.22634328 13.32385985 43.23827823 10.6875 44.25 C8.839897 44.96394303 6.99248753 45.67838711 5.14526367 46.39331055 C1.32318931 47.87120406 -2.50037787 49.34513855 -6.32519531 50.81591797 C-10.82645308 52.54708995 -15.32465406 54.2859895 -19.82128906 56.02912903 C-37.59130332 62.91748959 -55.39424763 69.69037761 -73.30859375 76.1953125 C-78.89479606 78.2246665 -84.46758285 80.28732516 -90.03515625 82.3671875 C-109.19918526 89.51585917 -128.45081569 96.25450323 -147.88105774 102.64135742 C-157.6765066 105.86963464 -167.43053947 109.22010463 -177.1875 112.5625 C-178.06934967 112.86454346 -178.95119934 113.16658691 -179.85977173 113.4777832 C-180.71855927 113.77193115 -181.5773468 114.0660791 -182.4621582 114.36914062 C-183.29856842 114.65554916 -184.13497864 114.9419577 -184.99673462 115.23704529 C-186.54741021 115.76820821 -188.09794069 116.29979508 -189.64828491 116.83192444 C-191.05254813 117.31330735 -192.45739884 117.79298053 -193.86288452 118.27078247 C-195.38681457 118.79077145 -196.90840837 119.31762842 -198.42837524 119.84909058 C-199.62652359 120.2620488 -199.62652359 120.2620488 -200.84887695 120.68334961 C-201.57194534 120.93531601 -202.29501373 121.18728241 -203.03999329 121.44688416 C-205 122 -205 122 -208 122 C-214.28452723 93.23986831 -204.29115832 60.49545352 -188.84326172 36.17919922 C-168.90409371 5.90665345 -138.99482225 -15.36547064 -103.44921875 -23.03515625 C-67.36947202 -29.97827209 -29.5523293 -21.94304691 0 0 Z M-160 6 C-160.77947998 6.65838867 -160.77947998 6.65838867 -161.57470703 7.33007812 C-189.61991002 31.22874592 -204.51664345 64.72477684 -208 101 C-208.39665496 107.45465804 -207.96380125 113.61481669 -207 120 C-200.23926614 118.61586863 -193.80258098 116.74281273 -187.265625 114.54296875 C-186.24734619 114.20401077 -185.22906738 113.8650528 -184.17993164 113.51582336 C-180.86822934 112.41146776 -177.55898286 111.29997516 -174.25 110.1875 C-173.10897827 109.80529297 -171.96795654 109.42308594 -170.7923584 109.02929688 C-151.27396668 102.49110296 -131.81527072 95.80318046 -112.43408203 88.86932373 C-109.88290852 87.95818119 -107.33028064 87.05120886 -104.77734375 86.14501953 C-65.47935083 72.18641232 -26.54969158 57.25683863 12.1875 41.8125 C13.34902588 41.34996826 14.51055176 40.88743652 15.70727539 40.41088867 C20.57909246 38.45120545 25.35897643 36.46078452 30 34 C26.12173838 27.84229212 21.94310033 22.34232588 16.9375 17.0625 C16.28410645 16.3715625 15.63071289 15.680625 14.95751953 14.96875 C9.09489835 8.89172925 2.96683279 3.77676406 -4 -1 C-5.0003125 -1.69351562 -6.000625 -2.38703125 -7.03125 -3.1015625 C-53.51855976 -33.50614136 -117.58860027 -30.33544033 -160 6 Z " fill="#181818" transform="translate(519,327)"/>
<path d="M0 0 C1.7802356 -0.00314209 1.7802356 -0.00314209 3.59643555 -0.00634766 C4.85883057 -0.0016748 6.12122559 0.00299805 7.421875 0.0078125 C8.69264893 0.01119629 9.96342285 0.01458008 11.27270508 0.01806641 C30.88214285 0.12614893 30.88214285 0.12614893 36.171875 1.1328125 C36.501875 1.7928125 36.831875 2.4528125 37.171875 3.1328125 C22.651875 3.1328125 8.131875 3.1328125 -6.828125 3.1328125 C-6.951875 6.9071875 -7.075625 10.6815625 -7.203125 14.5703125 C-8.83357011 56.9976286 -22.10395493 94.09968815 -51.828125 125.1328125 C-52.52035156 125.87660156 -53.21257812 126.62039063 -53.92578125 127.38671875 C-68.60994486 142.71048295 -86.6831074 152.4997396 -105.828125 161.1328125 C-106.97410156 161.66132812 -108.12007813 162.18984375 -109.30078125 162.734375 C-113.59767673 164.4379061 -117.90756167 165.59451384 -122.390625 166.6953125 C-123.5981543 167.00758789 -123.5981543 167.00758789 -124.83007812 167.32617188 C-136.92052493 170.33698572 -148.81540355 171.45047455 -161.2265625 171.33862305 C-163.35428615 171.32008456 -165.481578 171.31811625 -167.609375 171.31835938 C-173.4501322 171.29751166 -179.06914278 171.23544422 -184.828125 170.1328125 C-184.828125 169.4728125 -184.828125 168.8128125 -184.828125 168.1328125 C-183.80678467 168.14852295 -182.78544434 168.1642334 -181.7331543 168.18041992 C-155.08887797 168.90801397 -155.08887797 168.90801397 -128.828125 165.1328125 C-128.08159668 164.95588867 -127.33506836 164.77896484 -126.56591797 164.59667969 C-109.91165337 160.56455792 -95.20947532 154.43375163 -80.828125 145.1328125 C-79.73757813 144.44445312 -78.64703125 143.75609375 -77.5234375 143.046875 C-42.56331525 120.05354276 -22.0437051 85.05827307 -13.109375 44.90234375 C-11.47721506 36.58552877 -10.76236951 28.28107423 -10.875 19.80859375 C-10.88611816 18.86483887 -10.89723633 17.92108398 -10.90869141 16.94873047 C-10.93799656 15.05033602 -10.98162505 13.15210125 -11.04052734 11.25439453 C-11.0555127 10.3776709 -11.07049805 9.50094727 -11.0859375 8.59765625 C-11.1080127 7.8099585 -11.13008789 7.02226074 -11.15283203 6.21069336 C-10.74264097 3.58577898 -9.87604626 2.76648808 -7.828125 1.1328125 C-5.12986508 -0.21631746 -3.01896529 0.00317213 0 0 Z " fill="#0B0B0B" transform="translate(609.828125,431.8671875)"/>
<path d="M0 0 C1.85540405 0.18888794 1.85540405 0.18888794 3.74829102 0.3815918 C4.89740967 0.51090088 6.04652832 0.64020996 7.23046875 0.7734375 C8.25938232 0.88864746 9.2882959 1.00385742 10.34838867 1.12255859 C12.8125 1.625 12.8125 1.625 14.8125 3.625 C13.37512294 3.65306159 11.93756577 3.67184998 10.5 3.6875 C9.29923828 3.70490234 9.29923828 3.70490234 8.07421875 3.72265625 C5.36159939 3.6414401 2.75368545 3.42060174 0.05859375 3.13671875 C-42.16612329 -0.84527063 -84.97472345 5.65497819 -124.1875 21.625 C-125.06937988 21.98319824 -125.95125977 22.34139648 -126.85986328 22.71044922 C-158.30415154 35.70567711 -185.72081224 55.17882059 -210.1875 78.625 C-211.00863281 79.40488281 -211.82976562 80.18476563 -212.67578125 80.98828125 C-217.65202198 85.82700929 -222.04607422 90.98509424 -226.33984375 96.4375 C-228.1875 98.625 -228.1875 98.625 -230.1875 99.625 C-228.75745245 95.10340456 -226.22720806 92.16414358 -223 88.8125 C-221.9991626 87.75078877 -220.99916202 86.68828807 -220 85.625 C-219.5153125 85.11195313 -219.030625 84.59890625 -218.53125 84.0703125 C-216.79349569 82.20121629 -215.14559584 80.26283581 -213.5 78.3125 C-210.73592951 75.13965852 -207.79876069 72.36662541 -204.5859375 69.65234375 C-202.75431173 68.10411284 -200.95457051 66.53599072 -199.1640625 64.94140625 C-186.49661869 53.7424366 -172.75959313 44.18349011 -158.1875 35.625 C-157.61837891 35.27904785 -157.04925781 34.9330957 -156.46289062 34.57666016 C-144.29372726 27.18160423 -131.40093946 21.86594121 -118.1875 16.625 C-116.74734302 16.0404947 -115.30723252 15.45587485 -113.8671875 14.87109375 C-77.91781576 0.54847232 -38.32537319 -3.94486485 0 0 Z " fill="#0D0D0D" transform="translate(467.1875,171.375)"/>
<path d="M0 0 C20.75511574 2.36570468 41.88126206 23.52553476 54.47265625 38.78466797 C56.7918766 41.76244306 58.95660866 44.82736607 61 48 C57.42813742 51.0843414 53.3629589 52.6064828 49.01171875 54.265625 C48.21347687 54.57573013 47.41523499 54.88583527 46.59280396 55.20533752 C43.96002421 56.22634328 41.32385985 57.23827823 38.6875 58.25 C36.839897 58.96394303 34.99248753 59.67838711 33.14526367 60.39331055 C29.32318931 61.87120406 25.49962213 63.34513855 21.67480469 64.81591797 C17.17354692 66.54708995 12.67534594 68.2859895 8.17871094 70.02912903 C-9.59130332 76.91748959 -27.39424763 83.69037761 -45.30859375 90.1953125 C-50.89479613 92.22466652 -56.46758023 94.28733211 -62.03515625 96.3671875 C-89.76162776 106.70953619 -117.71686861 116.2857379 -146 125 C-146 124.34 -146 123.68 -146 123 C-145.35394302 122.78195206 -144.70788605 122.56390411 -144.04225159 122.33924866 C-137.82426415 120.24013772 -131.60712284 118.13853995 -125.39082432 116.03443241 C-122.1982344 114.9538862 -119.00528334 113.87443983 -115.81176758 112.79663086 C-98.80298746 107.05536971 -81.85972723 101.16574834 -65 95 C-64.12667023 94.68092682 -63.25334045 94.36185364 -62.35354614 94.03311157 C-56.56258415 91.91434828 -50.77925761 89.77546668 -45 87.625 C-44.11333649 87.29528198 -43.22667297 86.96556396 -42.31314087 86.62585449 C-9.02593446 74.23279965 24.07613301 61.32816703 57 48 C53.23891983 42.06426683 49.26143671 36.67289864 44.4375 31.5625 C43.83107666 30.91853271 43.22465332 30.27456543 42.59985352 29.61108398 C30.59555174 17.13626967 15.95797879 7.65182282 0 1 C0 0.67 0 0.34 0 0 Z " fill="#0E0E0E" transform="translate(491,313)"/>
<path d="M0 0 C0.99 0.33 1.98 0.66 3 1 C2.01 1.495 2.01 1.495 1 2 C8.42478161 18.47939334 32.07327065 29.61201027 48.05834961 35.89111328 C56.90910839 39.23105565 65.63969205 41.59972378 75 43 C76.75763672 43.28037109 76.75763672 43.28037109 78.55078125 43.56640625 C84.67160045 44.30894876 90.84552528 44.10474296 97 44.0625 C98.25167969 44.05798828 99.50335938 44.05347656 100.79296875 44.04882812 C103.86202941 44.03711415 106.93098907 44.02071073 110 44 C109.67 44.99 109.34 45.98 109 47 C87.5134063 50.35813345 63.71837729 47.22427754 44 38 C43.32259766 37.6901416 42.64519531 37.3802832 41.94726562 37.06103516 C26.41644813 29.88608375 8.81846534 19.43891962 -1 5 C-0.875 2.0625 -0.875 2.0625 0 0 Z " fill="#070707" transform="translate(347,518)"/>
<path d="M0 0 C0.94875 0.825 1.8975 1.65 2.875 2.5 C4.2474167 3.66970445 5.6226655 4.8360903 7 6 C7.72574219 6.61488281 8.45148438 7.22976563 9.19921875 7.86328125 C30.87697522 25.74295146 57.69359242 38.30725571 86.21875 38.09765625 C87.33376892 38.09553383 87.33376892 38.09553383 88.47131348 38.09336853 C90.81425229 38.08783109 93.15709073 38.07529091 95.5 38.0625 C97.10156111 38.05747689 98.70312373 38.05291542 100.3046875 38.04882812 C104.20316288 38.03788227 108.1015645 38.02066196 112 38 C112 38.66 112 39.32 112 40 C96.35097335 44.10466273 79.55262521 42.75073706 64 39 C62.75992188 38.7215625 61.51984375 38.443125 60.2421875 38.15625 C40.58278517 33.39530914 24.42426713 23.9065183 9 11 C6.95937594 9.33205696 4.91770688 7.6653916 2.875 6 C1.24954718 4.66721874 -0.37562145 3.33409037 -2 2 C-1.34 1.34 -0.68 0.68 0 0 Z " fill="#101010" transform="translate(350,518)"/>
<path d="M0 0 C0 4.16779448 -2.28324617 6.23095948 -4.75 9.375 C-11.80661341 18.69514274 -17.49883617 28.70258513 -23 39 C-23.36158203 39.67627441 -23.72316406 40.35254883 -24.09570312 41.04931641 C-34.6036641 61.11993967 -43.1102915 83.84167694 -48.46533203 105.84033203 C-49.5301784 110.1415334 -50.7106564 114.41238038 -51.875 118.6875 C-52.12000244 119.59290527 -52.36500488 120.49831055 -52.61743164 121.43115234 C-55.50852543 132.02468645 -58.74298826 142.51422358 -62 153 C-62.33 153 -62.66 153 -63 153 C-62.35911443 145.5931939 -60.40167035 138.69875618 -58.375 131.5625 C-58.01050841 130.26850356 -57.64641971 128.97439357 -57.28271484 127.68017578 C-56.72659951 125.70183525 -56.16994999 123.72365986 -55.61087036 121.74615479 C-54.46004296 117.66918032 -53.34830663 113.58383511 -52.265625 109.48828125 C-42.40271809 72.46936705 -27.84240681 27.84240681 0 0 Z " fill="#131313" transform="translate(233,275)"/>
<path d="M0 0 C-21.46601255 7.51310439 -43.11540537 10.39323647 -65.75 10.3125 C-66.57039764 10.30995209 -67.39079529 10.30740417 -68.23605347 10.30477905 C-70.58988068 10.29218543 -72.94321525 10.26871329 -75.296875 10.23828125 C-76.35319878 10.22693649 -76.35319878 10.22693649 -77.43086243 10.21536255 C-81.06584222 10.14570367 -84.46223946 9.85020926 -88 9 C-88 8.34 -88 7.68 -88 7 C-86.28006836 6.97812622 -86.28006836 6.97812622 -84.52539062 6.95581055 C-46.71161822 6.54412015 -46.71161822 6.54412015 -9.52539062 0.18237305 C-3.37346904 -1.35634322 -3.37346904 -1.35634322 0 0 Z " fill="#0A0A0A" transform="translate(512,674)"/>
<path d="M0 0 C-0.66 0.33 -1.32 0.66 -2 1 C-2 1.66 -2 2.32 -2 3 C-3.21429688 3.07476562 -4.42859375 3.14953125 -5.6796875 3.2265625 C-31.67853115 5.10624516 -56.81377782 11.43298056 -79.42260742 24.64990234 C-80.91027418 25.50346418 -82.4522822 26.26088579 -84 27 C-84.99 26.67 -85.98 26.34 -87 26 C-60.84465966 10.58477526 -30.87983173 -1.10285113 0 0 Z " fill="#161616" transform="translate(437,261)"/>
<path d="M0 0 C0 0.66 0 1.32 0 2 C-1.63867188 3.3059082 -1.63867188 3.3059082 -3.96875 4.80078125 C-4.83757812 5.35918701 -5.70640625 5.91759277 -6.6015625 6.49291992 C-7.55804688 7.09338135 -8.51453125 7.69384277 -9.5 8.3125 C-10.48742187 8.93552002 -11.47484375 9.55854004 -12.4921875 10.20043945 C-23.38602327 16.987649 -34.6170243 23.08011884 -46 29 C-47.03979004 29.54446777 -48.07958008 30.08893555 -49.15087891 30.64990234 C-52.19766494 32.23918075 -55.2527072 33.81093152 -58.3125 35.375 C-59.70952148 36.09949341 -59.70952148 36.09949341 -61.13476562 36.83862305 C-61.99392578 37.27086182 -62.85308594 37.70310059 -63.73828125 38.1484375 C-64.49149658 38.53177246 -65.24471191 38.91510742 -66.02075195 39.31005859 C-68 40 -68 40 -71 39 C-69.1385239 38.01821798 -67.27695832 37.03660538 -65.41503906 36.05566406 C-63.730351 35.16783279 -62.04612285 34.27912841 -60.36230469 33.38964844 C-55.73196319 30.94776845 -51.09164028 28.52963494 -46.42578125 26.15625 C-24.33154687 15.04525062 -24.33154687 15.04525062 -3.83666992 1.31665039 C-2 0 -2 0 0 0 Z " fill="#0B0B0B" transform="translate(83,539)"/>
<path d="M0 0 C1.85383301 0.18900879 1.85383301 0.18900879 3.74511719 0.38183594 C5.47036621 0.57567871 5.47036621 0.57567871 7.23046875 0.7734375 C8.25938232 0.88864746 9.2882959 1.00385742 10.34838867 1.12255859 C12.8125 1.625 12.8125 1.625 14.8125 3.625 C13.37512294 3.65306159 11.93756577 3.67184998 10.5 3.6875 C9.29923828 3.70490234 9.29923828 3.70490234 8.07421875 3.72265625 C5.41417153 3.64301412 2.86111143 3.43334479 0.21875 3.15625 C-8.62037797 2.3146772 -17.50325413 2.25939988 -26.375 2.0625 C-28.20378402 2.01921613 -30.03256019 1.97559904 -31.86132812 1.93164062 C-36.30330418 1.82558499 -40.74536221 1.72403971 -45.1875 1.625 C-44.8575 0.965 -44.5275 0.305 -44.1875 -0.375 C-29.67347604 -2.91332706 -14.54089914 -1.51630693 0 0 Z " fill="#020202" transform="translate(467.1875,171.375)"/>
<path d="M0 0 C1.7802356 -0.00314209 1.7802356 -0.00314209 3.59643555 -0.00634766 C4.85883057 -0.0016748 6.12122559 0.00299805 7.421875 0.0078125 C8.69264893 0.01119629 9.96342285 0.01458008 11.27270508 0.01806641 C30.88214285 0.12614893 30.88214285 0.12614893 36.171875 1.1328125 C36.666875 2.1228125 36.666875 2.1228125 37.171875 3.1328125 C22.651875 3.1328125 8.131875 3.1328125 -6.828125 3.1328125 C-7.158125 10.0628125 -7.488125 16.9928125 -7.828125 24.1328125 C-8.488125 24.4628125 -9.148125 24.7928125 -9.828125 25.1328125 C-10.08289928 21.6967061 -10.30251503 18.25923449 -10.515625 14.8203125 C-10.58845703 13.84384766 -10.66128906 12.86738281 -10.73632812 11.86132812 C-10.79111328 10.92353516 -10.84589844 9.98574219 -10.90234375 9.01953125 C-10.95994873 8.15545654 -11.01755371 7.29138184 -11.0769043 6.40112305 C-10.828125 4.1328125 -10.828125 4.1328125 -9.44848633 2.38989258 C-6.25157756 -0.09027666 -3.99293421 0.00419552 0 0 Z " fill="#010101" transform="translate(609.828125,431.8671875)"/>
<path d="M0 0 C3 1 3 1 4 3 C4.06950541 4.54023996 4.08452357 6.08334988 4.0625 7.625 C4.05347656 8.44226563 4.04445313 9.25953125 4.03515625 10.1015625 C4.02355469 10.72804688 4.01195312 11.35453125 4 12 C3.01 12.33 2.02 12.66 1 13 C1.33 9.37 1.66 5.74 2 2 C1.01 2.33 0.02 2.66 -1 3 C-1.07476563 4.06734375 -1.14953125 5.1346875 -1.2265625 6.234375 C-2.37852621 20.02820138 -5.60887156 33.22198885 -11 46 C-11.66 46 -12.32 46 -13 46 C-12.37637573 42.4037667 -11.39525311 39.00447366 -10.28686523 35.5300293 C-7.67859309 27.28380999 -6.07284741 19.20738825 -5.16455078 10.60131836 C-4.43272654 4.53302204 -4.43272654 4.53302204 -1.91015625 1.42578125 C-1.27980469 0.95527344 -0.64945313 0.48476563 0 0 Z " fill="#0A0A0A" transform="translate(569,437)"/>
<path d="M0 0 C-2.92800118 2.92800118 -6.59030331 3.75909854 -10.4375 5.0625 C-11.30044678 5.35833984 -12.16339355 5.65417969 -13.05249023 5.95898438 C-14.9685699 6.61375557 -16.8857083 7.26543406 -18.80371094 7.91455078 C-22.28237918 9.09589504 -25.75425428 10.2961928 -29.2265625 11.49609375 C-31.67157364 12.33161157 -34.11688345 13.16625593 -36.5625 14 C-37.74577881 14.41000244 -38.92905762 14.82000488 -40.14819336 15.24243164 C-41.25557861 15.6161792 -42.36296387 15.98992676 -43.50390625 16.375 C-44.49205322 16.71273437 -45.4802002 17.05046875 -46.49829102 17.3984375 C-49 18 -49 18 -52 17 C-47.4636117 13.92945541 -42.65426087 12.35290387 -37.5 10.64453125 C-36.58669922 10.33803146 -35.67339844 10.03153168 -34.73242188 9.71574402 C-32.80699144 9.07157246 -30.88053352 8.43046493 -28.953125 7.79223633 C-26.00698036 6.81481582 -23.06592345 5.82308211 -20.125 4.83007812 C-18.25029035 4.20485789 -16.37529944 3.58048022 -14.5 2.95703125 C-13.62279297 2.6602095 -12.74558594 2.36338776 -11.84179688 2.05757141 C-4.30293335 -0.41717732 -4.30293335 -0.41717732 0 0 Z " fill="#111111" transform="translate(188,530)"/>
<path d="M0 0 C0.33 0.99 0.66 1.98 1 3 C0.52691406 3.41507813 0.05382812 3.83015625 -0.43359375 4.2578125 C-4.94495106 8.4613774 -8.53161917 12.91346053 -11.875 18.0625 C-12.2558374 18.6395166 -12.6366748 19.2165332 -13.02905273 19.81103516 C-17.28639718 26.55668615 -18.30976788 32.6701425 -18.125 40.4375 C-18.11597656 41.16904297 -18.10695313 41.90058594 -18.09765625 42.65429688 C-18.07436153 44.43634298 -18.0385019 46.21821759 -18 48 C-21.88293684 43.73597917 -21.49014396 39.92124792 -21.34765625 34.3828125 C-19.89017541 20.2010326 -9.35080471 9.83331954 0 0 Z " fill="#0B0B0B" transform="translate(294,555)"/>
<path d="M0 0 C13.53 0 27.06 0 41 0 C41 0.66 41 1.32 41 2 C33.82568159 3.88178844 26.74970221 4.21891317 19.375 4.25 C18.49303955 4.25902344 17.6110791 4.26804687 16.70239258 4.27734375 C10.85377939 4.2511486 5.66768383 3.44853583 0 2 C0 1.34 0 0.68 0 0 Z " fill="#171717" transform="translate(421,556)"/>
<path d="M0 0 C0 5.48733312 -4.81801325 8.8173168 -8.52978516 12.53027344 C-15.65080561 19.53312848 -23.07330194 26.04716812 -31 32.125 C-31.69335449 32.65697998 -32.38670898 33.18895996 -33.10107422 33.73706055 C-37.24353744 36.84965444 -41.44863036 39.52282226 -46 42 C-44.73985933 38.21957799 -43.3081005 37.55665294 -40.0625 35.3125 C-25.36751723 24.90830031 -12.61668807 12.78030507 0 0 Z " fill="#161616" transform="translate(129,498)"/>
<path d="M0 0 C0.33 0 0.66 0 1 0 C1.33 10.56 1.66 21.12 2 32 C-3.58422931 33.85970674 -9.16971647 35.71380007 -14.76025391 37.55419922 C-16.66040095 38.18153599 -18.5595058 38.81203891 -20.45751953 39.44580078 C-23.190334 40.3576933 -25.92672904 41.25802768 -28.6640625 42.15625 C-29.50804596 42.44060913 -30.35202942 42.72496826 -31.22158813 43.01794434 C-35.5716457 44.43251354 -39.36636215 45.55194149 -44 45 C-44.66 44.34 -45.32 43.68 -46 43 C-45.625 40.875 -45.625 40.875 -45 39 C-44.34 40.32 -43.68 41.64 -43 43 C-37.57860112 42.39969594 -32.79435998 41.08850043 -27.66015625 39.27734375 C-26.89319931 39.01240616 -26.12624237 38.74746857 -25.33604431 38.47450256 C-22.90943157 37.63474324 -20.48597007 36.7862807 -18.0625 35.9375 C-16.40840429 35.36335241 -14.75410921 34.78977887 -13.09960938 34.21679688 C-9.06365734 32.81888065 -5.03209183 31.40921291 -1 30 C-0.67 20.1 -0.34 10.2 0 0 Z " fill="#060606" transform="translate(306,419)"/>
<path d="M0 0 C-13.29292147 3.51752237 -26.58888754 6.96122829 -40 10 C-40.97283936 10.22647217 -40.97283936 10.22647217 -41.96533203 10.45751953 C-43.85008314 10.89617489 -45.73751072 11.32328055 -47.625 11.75 C-49.22214844 12.11351562 -49.22214844 12.11351562 -50.8515625 12.484375 C-54.2824696 13.04626053 -57.52938546 13.08742102 -61 13 C-61 12.67 -61 12.34 -61 12 C-60.21463867 11.83395264 -59.42927734 11.66790527 -58.62011719 11.49682617 C-54.99626432 10.72929989 -51.37313276 9.95841809 -47.75 9.1875 C-46.51507812 8.92646484 -45.28015625 8.66542969 -44.0078125 8.39648438 C-32.43226481 5.929065 -21.03796556 3.20821041 -9.80859375 -0.54492188 C-5.65766583 -1.84065352 -3.73627264 -2.21609218 0 0 Z " fill="#151515" transform="translate(876,267)"/>
<path d="M0 0 C22.22281104 -0.58457415 42.32569567 1.47086685 63 10 C63 10.33 63 10.66 63 11 C57.8793411 10.40380427 53.21824622 9.21067209 48.3125 7.625 C32.55259185 2.79776626 16.40018023 1.53801496 0 1 C0 0.67 0 0.34 0 0 Z " fill="#242424" transform="translate(430,302)"/>
<path d="M0 0 C4.81800436 0.54916463 8.65311413 2.02273053 12.875 4.3125 C13.51920898 4.66078857 14.16341797 5.00907715 14.82714844 5.36791992 C27.38567599 12.39082058 38.23376729 21.48888514 48 32 C45 32 45 32 43.4140625 30.6015625 C42.82367187 29.94929688 42.23328125 29.29703125 41.625 28.625 C30.01505031 16.61177966 15.35225225 7.39933561 0 1 C0 0.67 0 0.34 0 0 Z " fill="#0B0B0B" transform="translate(491,313)"/>
<path d="M0 0 C-2.56165931 2.56165931 -4.48690829 2.75485923 -8 3.625 C-20.31181329 7.01612637 -32.00625514 12.48264198 -42.93359375 19.06640625 C-45 20 -45 20 -48 19 C-10.06806283 -3.35602094 -10.06806283 -3.35602094 0 0 Z " fill="#171717" transform="translate(398,268)"/>
<path d="M0 0 C0 0.66 0 1.32 0 2 C-5.80763411 4.33436439 -11.61946073 6.65795459 -17.43457031 8.97363281 C-19.66604698 9.86639337 -21.89244325 10.77032748 -24.1171875 11.6796875 C-25.25414062 12.13601563 -26.39109375 12.59234375 -27.5625 13.0625 C-28.55378906 13.46597656 -29.54507813 13.86945313 -30.56640625 14.28515625 C-33 15 -33 15 -36 14 C-32.70748354 11.23570558 -29.3780981 9.81889817 -25.37109375 8.30078125 C-24.74018326 8.0608696 -24.10927277 7.82095795 -23.45924377 7.57377625 C-22.13164723 7.07070508 -20.80283711 6.57082619 -19.47290039 6.07397461 C-17.4375384 5.31251436 -15.407114 4.53887775 -13.37695312 3.76367188 C-12.08360886 3.27531134 -10.78999785 2.78765656 -9.49609375 2.30078125 C-7.73543579 1.63816284 -7.73543579 1.63816284 -5.93920898 0.9621582 C-3 0 -3 0 0 0 Z " fill="#0E0E0E" transform="translate(588,387)"/>
<path d="M0 0 C0.66942627 0.20157715 1.33885254 0.4031543 2.02856445 0.61083984 C5.12141105 1.53834754 8.21690551 2.45670711 11.3125 3.375 C12.36501953 3.69210937 13.41753906 4.00921875 14.50195312 4.3359375 C21.28554834 6.33970716 28.01294889 7.89481194 35 9 C35.495 10.485 35.495 10.485 36 12 C22.90120839 10.1461673 10.32097741 6.81568348 -2 2 C-1.34 1.34 -0.68 0.68 0 0 Z " fill="#131313" transform="translate(389,590)"/>
<path d="M0 0 C1.29516602 2.59033203 0.79579599 3.44168262 0.03125 6.19921875 C-0.20706543 7.06853027 -0.44538086 7.9378418 -0.69091797 8.83349609 C-0.95791504 9.77531738 -1.22491211 10.71713867 -1.5 11.6875 C-1.76828613 12.65252441 -2.03657227 13.61754883 -2.31298828 14.61181641 C-5.35805146 25.46258372 -8.65714436 36.2378537 -12 47 C-12.33 47 -12.66 47 -13 47 C-12.41136856 39.92750407 -10.59420672 33.31871008 -8.67138672 26.50073242 C-8.12764197 24.57187204 -7.59309335 22.64042708 -7.05859375 20.70898438 C-1.77900341 1.77900341 -1.77900341 1.77900341 0 0 Z " fill="#1A1A1A" transform="translate(183,381)"/>
<path d="M0 0 C0.66 0.33 1.32 0.66 2 1 C2 1.66 2 2.32 2 3 C-3.83869149 2.00543331 -9.61476338 0.88217615 -15.375 -0.5 C-21.86913676 -2.03582826 -28.39332081 -3.08090388 -35 -4 C-26.6887402 -9.59694963 -8.88831915 -2.75228113 0 0 Z " fill="#0F0F0F" transform="translate(513,180)"/>
<path d="M0 0 C0 0.33 0 0.66 0 1 C-0.648479 1.09498779 -1.29695801 1.18997559 -1.96508789 1.2878418 C-13.68012842 3.03550389 -24.98168637 4.79921554 -36.07421875 9.046875 C-38.92282791 9.97485983 -41.03138371 10.19827493 -44 10 C-31.63641559 1.7576104 -14.46667634 -0.45445057 0 0 Z " fill="#191919" transform="translate(434,303)"/>
<path d="M0 0 C3 1 3 1 4 3 C4.06950541 4.54023996 4.08452357 6.08334988 4.0625 7.625 C4.05347656 8.44226563 4.04445313 9.25953125 4.03515625 10.1015625 C4.02355469 10.72804688 4.01195312 11.35453125 4 12 C3.01 12.33 2.02 12.66 1 13 C1.33 9.37 1.66 5.74 2 2 C1.01 2.33 0.02 2.66 -1 3 C-1.66 7.95 -2.32 12.9 -3 18 C-3.66 18 -4.32 18 -5 18 C-4.93981983 15.74926172 -4.85098794 13.49927675 -4.75 11.25 C-4.70359375 9.99703125 -4.6571875 8.7440625 -4.609375 7.453125 C-3.92849653 3.59481364 -3.01873478 2.39083795 0 0 Z " fill="#020202" transform="translate(569,437)"/>
<path d="M0 0 C1.18717597 1.78076396 2.34723913 3.58092168 3.4453125 5.41796875 C7.33114704 11.82507732 11.51209991 16.92541456 17 22 C18.00484253 22.99513391 19.00563367 23.99439789 20 25 C20.66 25.66 21.32 26.32 22 27 C17.35132502 25.56701395 14.3988235 22.9021685 11.0625 19.5 C10.53760986 18.96898682 10.01271973 18.43797363 9.47192383 17.89086914 C5.23990145 13.48812127 1.21996141 8.76315106 -1 3 C-0.67 2.01 -0.34 1.02 0 0 Z " fill="#141414" transform="translate(276,601)"/>
<path d="M0 0 C0 0.33 0 0.66 0 1 C-3.45746016 1.83698495 -6.91610489 2.66896676 -10.375 3.5 C-11.85226562 3.85771484 -11.85226562 3.85771484 -13.359375 4.22265625 C-14.30039062 4.44824219 -15.24140625 4.67382812 -16.2109375 4.90625 C-17.51490479 5.22045898 -17.51490479 5.22045898 -18.84521484 5.54101562 C-21 6 -21 6 -23 6 C-22.67 5.01 -22.34 4.02 -22 3 C-19.59212308 2.07527919 -17.36037513 1.37608687 -14.875 0.75 C-14.22273438 0.564375 -13.57046875 0.37875 -12.8984375 0.1875 C-8.15148863 -1.05574851 -4.70844679 -0.95391909 0 0 Z " fill="#1A1A1A" transform="translate(394,177)"/>
<path d="M0 0 C-18.01691729 6.30592105 -18.01691729 6.30592105 -26 6 C-25 4 -25 4 -23.0222168 3.2980957 C-20.24596311 2.62662112 -17.46993543 1.95799559 -14.6875 1.3125 C-13.72392578 1.07466797 -12.76035156 0.83683594 -11.76757812 0.59179688 C-10.37249023 0.26211914 -10.37249023 0.26211914 -8.94921875 -0.07421875 C-8.09674561 -0.27619873 -7.24427246 -0.47817871 -6.3659668 -0.6862793 C-3.91279921 -1.01156259 -2.33126834 -0.76923439 0 0 Z " fill="#050505" transform="translate(512,674)"/>
<path d="M0 0 C5.17935061 1.46828943 9.34373412 3.81491263 13.875 6.625 C14.90753906 7.25535156 14.90753906 7.25535156 15.9609375 7.8984375 C17.64391658 8.92692472 19.32242532 9.962721 21 11 C18 12 18 12 16.00708008 11.19555664 C15.26868896 10.77137451 14.53029785 10.34719238 13.76953125 9.91015625 C12.96708984 9.45576172 12.16464844 9.00136719 11.33789062 8.53320312 C10.50451172 8.04787109 9.67113281 7.56253906 8.8125 7.0625 C7.5450293 6.34030273 7.5450293 6.34030273 6.25195312 5.60351562 C4.16261511 4.4112945 2.07913325 3.20990182 0 2 C0 1.34 0 0.68 0 0 Z " fill="#0C0C0C" transform="translate(562,200)"/>
<path d="M0 0 C-5.20918864 3.47279243 -10.9161511 3.29437979 -17 3 C-19.2421875 1.98828125 -19.2421875 1.98828125 -21 1 C-18.25091555 0.63685675 -15.50116549 0.28419159 -12.75 -0.0625 C-11.97269531 -0.16626953 -11.19539063 -0.27003906 -10.39453125 -0.37695312 C-9.64042969 -0.47041016 -8.88632812 -0.56386719 -8.109375 -0.66015625 C-7.41811523 -0.74918213 -6.72685547 -0.83820801 -6.01464844 -0.92993164 C-3.82569152 -1.00606235 -2.08994187 -0.6249336 0 0 Z " fill="#161616" transform="translate(487,679)"/>
<path d="M0 0 C0.66 0 1.32 0 2 0 C1.85811015 2.54194161 1.71160845 5.08347993 1.5625 7.625 C1.50352539 8.69427734 1.50352539 8.69427734 1.44335938 9.78515625 C1.19690319 13.91803682 0.76529947 17.92269024 0 22 C-0.66 22 -1.32 22 -2 22 C-1.46589137 14.64748331 -0.86859084 7.32097997 0 0 Z " fill="#020202" transform="translate(679,468)"/>
<path d="M0 0 C6.74233419 -0.12910853 13.30386804 0.202163 20 1 C20 1.33 20 1.66 20 2 C13.26614928 3.68346268 6.75105368 3.12517561 0 2 C0 1.34 0 0.68 0 0 Z " fill="#1D1D1D" transform="translate(409,679)"/>
<path d="M0 0 C1.12642186 3.37926557 0.96344705 3.72928278 -0.43359375 6.79296875 C-0.75263672 7.50517578 -1.07167969 8.21738281 -1.40039062 8.95117188 C-1.74263672 9.68916016 -2.08488281 10.42714844 -2.4375 11.1875 C-2.77587891 11.93708984 -3.11425781 12.68667969 -3.46289062 13.45898438 C-4.2999411 15.30992698 -5.14885404 17.15549666 -6 19 C-6.66 18.34 -7.32 17.68 -8 17 C-6.85700498 14.35290709 -5.71075628 11.70730948 -4.5625 9.0625 C-4.23701172 8.30775391 -3.91152344 7.55300781 -3.57617188 6.77539062 C-1.11328125 1.11328125 -1.11328125 1.11328125 0 0 Z " fill="#0A0A0A" transform="translate(591,501)"/>
<path d="M0 0 C-3.01447835 2.57075841 -5.35979771 3.52207066 -9.25 4.1875 C-10.58804688 4.42533203 -10.58804688 4.42533203 -11.953125 4.66796875 C-12.62859375 4.77753906 -13.3040625 4.88710938 -14 5 C-14.33 4.34 -14.66 3.68 -15 3 C-13.06643218 2.30151736 -11.12797702 1.61655186 -9.1875 0.9375 C-8.10855469 0.55464844 -7.02960938 0.17179688 -5.91796875 -0.22265625 C-3 -1 -3 -1 0 0 Z " fill="#232323" transform="translate(137,547)"/>
<path d="M0 0 C-1 3 -1 3 -3.21484375 4.421875 C-4.56255859 5.07929687 -4.56255859 5.07929687 -5.9375 5.75 C-6.83339844 6.19859375 -7.72929687 6.6471875 -8.65234375 7.109375 C-9.42707031 7.40328125 -10.20179688 7.6971875 -11 8 C-11.66 7.67 -12.32 7.34 -13 7 C-10.84545751 4.64283596 -8.80280126 3.21033856 -5.9375 1.8125 C-5.24527344 1.46832031 -4.55304688 1.12414062 -3.83984375 0.76953125 C-2 0 -2 0 0 0 Z " fill="#070707" transform="translate(507,546)"/>
<path d="M0 0 C-2.40118527 2.40118527 -4.05496042 2.75220861 -7.3125 3.625 C-8.25738281 3.88539063 -9.20226562 4.14578125 -10.17578125 4.4140625 C-12.87851902 4.97479648 -15.25031848 5.1101876 -18 5 C-14.99390278 2.99593518 -12.40757305 1.96923742 -9 0.8125 C-7.948125 0.44769531 -6.89625 0.08289063 -5.8125 -0.29296875 C-3 -1 -3 -1 0 0 Z " fill="#1F1F1F" transform="translate(398,268)"/>
<path d="M0 0 C-4.29 1.65 -8.58 3.3 -13 5 C-11 1 -11 1 -7.625 -0.875 C-4 -2 -4 -2 0 0 Z " fill="#111111" transform="translate(498,547)"/>
<path d="M0 0 C0.66 0.66 1.32 1.32 2 2 C1.79296875 4.27734375 1.79296875 4.27734375 1.1875 6.9375 C0.99542969 7.81277344 0.80335938 8.68804688 0.60546875 9.58984375 C0 12 0 12 -1 15 C-1.99 15.33 -2.98 15.66 -4 16 C-2.68 10.72 -1.36 5.44 0 0 Z " fill="#1E1E1E" transform="translate(672,506)"/>
<path d="M0 0 C0.66 0.33 1.32 0.66 2 1 C-1.96 4.96 -5.92 8.92 -10 13 C-10 8.41771462 -7.08388033 6.1816619 -4 3 C-1.625 1.0625 -1.625 1.0625 0 0 Z " fill="#060606" transform="translate(261,243)"/>
<path d="M0 0 C4.71403788 0.47939368 8.66579301 0.96834048 13 3 C13 3.66 13 4.32 13 5 C11.20767663 4.69128878 9.41615679 4.37790936 7.625 4.0625 C6.62726563 3.88847656 5.62953125 3.71445313 4.6015625 3.53515625 C2 3 2 3 0 2 C0 1.34 0 0.68 0 0 Z " fill="#1C1C1C" transform="translate(502,178)"/>
<path d="M0 0 C1.79133978 -0.05391993 3.58313899 -0.09275571 5.375 -0.125 C6.37273437 -0.14820313 7.37046875 -0.17140625 8.3984375 -0.1953125 C11 0 11 0 13 2 C8.38 2.33 3.76 2.66 -1 3 C-0.67 2.01 -0.34 1.02 0 0 Z " fill="#151515" transform="translate(411,172)"/>
<path d="M0 0 C0.66 0 1.32 0 2 0 C0.48446596 3.47775179 -1.5773456 5.9557984 -4.125 8.75 C-5.21167969 9.94882812 -5.21167969 9.94882812 -6.3203125 11.171875 C-6.87460937 11.77515625 -7.42890625 12.3784375 -8 13 C-8.66 12.67 -9.32 12.34 -10 12 C-8.38201759 9.99394062 -6.75623702 7.99523205 -5.125 6 C-4.66480469 5.42765625 -4.20460938 4.8553125 -3.73046875 4.265625 C-2.53150078 2.80601181 -1.26958455 1.3986243 0 0 Z " fill="#0E0E0E" transform="translate(631,591)"/>
<path d="M0 0 C0.66 0 1.32 0 2 0 C1.44010697 3.99012371 0.24330232 6.5255052 -2.0625 9.8125 C-2.88427734 10.99779297 -2.88427734 10.99779297 -3.72265625 12.20703125 C-4.14417969 12.79871094 -4.56570313 13.39039063 -5 14 C-5.33 13.34 -5.66 12.68 -6 12 C-4.78515625 9.1796875 -4.78515625 9.1796875 -3.0625 5.875 C-2.49660156 4.77929688 -1.93070313 3.68359375 -1.34765625 2.5546875 C-0.90292969 1.71164062 -0.45820312 0.86859375 0 0 Z " fill="#202020" transform="translate(658,546)"/>
<path d="M0 0 C0.66 0.33 1.32 0.66 2 1 C-1.3 3.97 -4.6 6.94 -8 10 C-8.99 9.67 -9.98 9.34 -11 9 C-7.37 6.03 -3.74 3.06 0 0 Z " fill="#111111" transform="translate(601,623)"/>
<path d="M0 0 C1.1055189 0.93590504 2.20935453 1.87379858 3.3125 2.8125 C3.92738281 3.33457031 4.54226563 3.85664062 5.17578125 4.39453125 C6.85424679 5.87172469 8.43882034 7.40039131 10 9 C9.67 9.66 9.34 10.32 9 11 C5.37 8.03 1.74 5.06 -2 2 C-1.34 1.34 -0.68 0.68 0 0 Z " fill="#1B1B1B" transform="translate(350,518)"/>
<path d="M0 0 C1.6168484 3.23369679 0.00851816 6.30628257 -0.9375 9.625 C-1.13279297 10.33140625 -1.32808594 11.0378125 -1.52929688 11.765625 C-2.01314492 13.51219844 -2.50575123 15.25634124 -3 17 C-3.33 17 -3.66 17 -4 17 C-4.37484035 11.12750125 -3.25153948 6.43635958 -1 1 C-0.67 0.67 -0.34 0.34 0 0 Z " fill="#2C2C2C" transform="translate(183,381)"/>
<path d="M0 0 C-2.62451617 2.62451617 -4.4877828 2.5832868 -8.125 3.125 C-9.22070312 3.29257812 -10.31640625 3.46015625 -11.4453125 3.6328125 C-12.70988281 3.81457031 -12.70988281 3.81457031 -14 4 C-11.82333142 1.52403949 -10.20449768 0.50257143 -7 -0.25 C-6.319375 -0.42015625 -5.63875 -0.5903125 -4.9375 -0.765625 C-3 -1 -3 -1 0 0 Z " fill="#090909" transform="translate(411,265)"/>
<path d="M0 0 C0.66 0 1.32 0 2 0 C0.79881657 8.92307692 0.79881657 8.92307692 0 11 C-0.99 11.33 -1.98 11.66 -3 12 C-2.01 8.04 -1.02 4.08 0 0 Z " fill="#161616" transform="translate(567,464)"/>
<path d="M0 0 C3.96 0.33 7.92 0.66 12 1 C11.67 1.66 11.34 2.32 11 3 C3.57142857 3.14285714 3.57142857 3.14285714 0 2 C0 1.34 0 0.68 0 0 Z " fill="#080808" transform="translate(398,677)"/>
<path d="M0 0 C3.47775179 1.51553404 5.9557984 3.5773456 8.75 6.125 C9.94882812 7.21167969 9.94882812 7.21167969 11.171875 8.3203125 C11.77515625 8.87460937 12.3784375 9.42890625 13 10 C12.01 10.495 12.01 10.495 11 11 C9.72486237 9.92173635 8.45507431 8.83714481 7.1875 7.75 C6.47980469 7.14671875 5.77210938 6.5434375 5.04296875 5.921875 C3.08110329 4.07629602 1.54330375 2.20054668 0 0 Z " fill="#0C0C0C" transform="translate(285,617)"/>
<path d="M0 0 C-7.28571429 3.42857143 -7.28571429 3.42857143 -12 3 C-11 1 -11 1 -7.6875 -0.1875 C-4.42437937 -0.90649268 -3.00717118 -1.20286847 0 0 Z " fill="#0C0C0C" transform="translate(498,677)"/>
<path d="M0 0 C0.33 0.99 0.66 1.98 1 3 C-1.31 4.98 -3.62 6.96 -6 9 C-6 6 -6 6 -4.6875 4.39453125 C-4.130625 3.87246094 -3.57375 3.35039063 -3 2.8125 C-2.443125 2.28269531 -1.88625 1.75289062 -1.3125 1.20703125 C-0.6628125 0.60955078 -0.6628125 0.60955078 0 0 Z " fill="#040404" transform="translate(294,555)"/>
<path d="M0 0 C0.66 0 1.32 0 2 0 C1.01 3.3 0.02 6.6 -1 10 C-1.66 9.67 -2.32 9.34 -3 9 C-2.69181644 7.68647977 -2.37832335 6.37420428 -2.0625 5.0625 C-1.88847656 4.33160156 -1.71445312 3.60070312 -1.53515625 2.84765625 C-1 1 -1 1 0 0 Z " fill="#171717" transform="translate(594,492)"/>
<path d="M0 0 C0.33 1.32 0.66 2.64 1 4 C-3.625 7 -3.625 7 -7 7 C-7 6.34 -7 5.68 -7 5 C-6.030625 4.54625 -5.06125 4.0925 -4.0625 3.625 C-0.92920418 2.34213779 -0.92920418 2.34213779 0 0 Z " fill="#0E0E0E" transform="translate(876,267)"/>
<path d="M0 0 C-3.35327639 2.23551759 -3.90743657 2.17283528 -7.6875 1.625 C-8.49574219 1.51414062 -9.30398438 1.40328125 -10.13671875 1.2890625 C-10.75160156 1.19367187 -11.36648438 1.09828125 -12 1 C-12 0.67 -12 0.34 -12 0 C-3.42857143 -1.28571429 -3.42857143 -1.28571429 0 0 Z " fill="#242424" transform="translate(487,679)"/>
<path d="M0 0 C-0.33 0.66 -0.66 1.32 -1 2 C-3.32156597 2.40729228 -5.6568787 2.74438677 -8 3 C-8.33 2.34 -8.66 1.68 -9 1 C-3.375 -1.125 -3.375 -1.125 0 0 Z " fill="#202020" transform="translate(94,561)"/>
<path d="M0 0 C0.33 0.66 0.66 1.32 1 2 C-0.98 4.97 -2.96 7.94 -5 11 C-5.66 10.34 -6.32 9.68 -7 9 C-4.69 6.03 -2.38 3.06 0 0 Z " fill="#080808" transform="translate(148,473)"/>
<path d="M0 0 C-4.30769231 3.07692308 -4.30769231 3.07692308 -7.8125 2.6875 C-8.534375 2.460625 -9.25625 2.23375 -10 2 C-3.72972973 -1.24324324 -3.72972973 -1.24324324 0 0 Z " fill="#202020" transform="translate(49,575)"/>
<path d="M0 0 C0.66 0.33 1.32 0.66 2 1 C-1.96 4.465 -1.96 4.465 -6 8 C-6 5 -6 5 -4.6875 3.61328125 C-3.125 2.40885417 -1.5625 1.20442708 0 0 Z " fill="#0E0E0E" transform="translate(302,549)"/>
<path d="M0 0 C0 0.66 0 1.32 0 2 C-2.97 3.65 -5.94 5.3 -9 7 C-7.68534669 3.05604006 -4.38536841 0 0 0 Z " fill="#0D0D0D" transform="translate(83,539)"/>
<path d="M0 0 C-3.63 0.66 -7.26 1.32 -11 2 C-10 0 -10 0 -7.1875 -1.25 C-4 -2 -4 -2 0 0 Z " fill="#0E0E0E" transform="translate(876,267)"/>
<path d="M0 0 C0.66 0 1.32 0 2 0 C2 2.31 2 4.62 2 7 C1.01 6.67 0.02 6.34 -1 6 C-0.67 4.02 -0.34 2.04 0 0 Z " fill="#1A1A1A" transform="translate(600,434)"/>
<path d="M0 0 C1.875 0.25 1.875 0.25 4 1 C5.25 3.0625 5.25 3.0625 6 5 C4.35 5.66 2.7 6.32 1 7 C1.20625 6.401875 1.4125 5.80375 1.625 5.1875 C2.30671915 2.71549154 2.30671915 2.71549154 0 0 Z " fill="#1B1B1B" transform="translate(546,357)"/>
<path d="M0 0 C0.66 0.33 1.32 0.66 2 1 C-1.465 3.97 -1.465 3.97 -5 7 C-5.66 6.67 -6.32 6.34 -7 6 C-4.69 4.02 -2.38 2.04 0 0 Z " fill="#141414" transform="translate(269,236)"/>
<path d="M0 0 C-1 3 -1 3 -2.875 4.25 C-5 5 -5 5 -8 4 C-2.25 0 -2.25 0 0 0 Z " fill="#010101" transform="translate(504,541)"/>
<path d="M0 0 C-0.33 0.66 -0.66 1.32 -1 2 C-4.0625 2.625 -4.0625 2.625 -7 3 C-7.33 2.34 -7.66 1.68 -8 1 C-3.375 -1.125 -3.375 -1.125 0 0 Z " fill="#202020" transform="translate(553,401)"/>
<path d="M0 0 C-0.33 0.66 -0.66 1.32 -1 2 C-4.0625 2.625 -4.0625 2.625 -7 3 C-7.33 2.34 -7.66 1.68 -8 1 C-3.375 -1.125 -3.375 -1.125 0 0 Z " fill="#202020" transform="translate(595,385)"/>
<path d="M0 0 C0 0.66 0 1.32 0 2 C-3.3 1.67 -6.6 1.34 -10 1 C-5.64467851 -1.17766075 -4.53374042 -1.03039555 0 0 Z " fill="#222222" transform="translate(488,175)"/>
</svg>
